<svg width="19" height="19" viewBox="0 0 19 19" fill="none" xmlns="http://www.w3.org/2000/svg">
<path fill-rule="evenodd" clip-rule="evenodd" d="M9.5 0.06073C14.7467 0.06073 19 4.28842 19 9.50354C19 14.2167 15.526 18.1232 10.9844 18.8316V12.2331H13.1979L13.6191 9.50354H13.5734L13.5779 9.47441H10.9844V7.73222C10.9844 6.98547 11.3524 6.25758 12.5325 6.25758H13.7305V3.93376C13.7305 3.93376 13.7162 3.93134 13.6895 3.92707V3.88351C13.6895 3.88351 12.6002 3.69838 11.5587 3.69838C9.38449 3.69838 7.96344 5.01058 7.96344 7.38616V9.47441H5.54661V12.2143H5.60352V12.2331H7.96344V18.8234C3.44743 18.0933 0 14.1987 0 9.50354C0 4.28842 4.25329 0.06073 9.5 0.06073Z" fill="black"/>
</svg>

