<svg width="27" height="25" viewBox="0 0 27 25" fill="none" xmlns="http://www.w3.org/2000/svg">
<path fill-rule="evenodd" clip-rule="evenodd" d="M13.5007 24.5771L11.6277 22.8721C4.97565 16.84 0.583984 12.8617 0.583984 7.97917C0.583984 4.00083 3.70982 0.875 7.68815 0.875C9.93565 0.875 12.0927 1.92125 13.5007 3.57458C14.9086 1.92125 17.0657 0.875 19.3132 0.875C23.2915 0.875 26.4173 4.00083 26.4173 7.97917C26.4173 12.8617 22.0257 16.84 15.3736 22.885L13.5007 24.5771Z" fill="#3A0232"/>
<path fill-rule="evenodd" clip-rule="evenodd" d="M13.5007 24.5771L11.6277 22.8721C4.97565 16.84 0.583984 12.8617 0.583984 7.97917C0.583984 4.00083 3.70982 0.875 7.68815 0.875C9.93565 0.875 12.0927 1.92125 13.5007 3.57458C14.9086 1.92125 17.0657 0.875 19.3132 0.875C23.2915 0.875 26.4173 4.00083 26.4173 7.97917C26.4173 12.8617 22.0257 16.84 15.3736 22.885L13.5007 24.5771Z" fill="#D800B9"/>
</svg>
