<svg width="19" height="19" viewBox="0 0 19 19" fill="none" xmlns="http://www.w3.org/2000/svg">
<path fill-rule="evenodd" clip-rule="evenodd" d="M18.9429 5.67591C18.8966 4.7025 18.736 4.03775 18.5012 3.45616C18.2627 2.84597 17.8887 2.29326 17.4055 1.83642C16.931 1.3712 16.3567 1.01106 15.7228 0.781381C15.1184 0.555471 14.428 0.401003 13.4168 0.35677C12.4037 0.312118 12.08 0.301514 9.5 0.301514C6.92003 0.301514 6.59634 0.312118 5.58322 0.356491C4.57199 0.401003 3.88155 0.55561 3.27722 0.78166C2.64332 1.0112 2.06914 1.3712 1.59454 1.83642C1.11125 2.29312 0.737114 2.84583 0.498512 3.45602C0.263824 4.03775 0.103355 4.7025 0.0574036 5.67577C0.0110168 6.65114 0 6.96258 0 9.44606C0 11.9297 0.0110168 12.2413 0.0574036 13.2165C0.1035 14.1898 0.264114 14.8545 0.498947 15.4362C0.737404 16.0463 1.1114 16.5991 1.59469 17.0558C2.06914 17.5211 2.64346 17.8811 3.27737 18.1106C3.88155 18.3368 4.57214 18.4913 5.58337 18.5358C6.59663 18.5803 6.92017 18.5907 9.50014 18.5907C12.0801 18.5907 12.4038 18.5803 13.4169 18.5358C14.4282 18.4913 15.1186 18.3368 15.7229 18.1106C16.999 17.6356 18.0078 16.6646 18.5012 15.4362C18.7362 14.8545 18.8966 14.1898 18.9429 13.2165C18.989 12.2411 19 11.9297 19 9.4462C19 6.96258 18.989 6.65114 18.9429 5.67591ZM17.2328 13.1416C17.1906 14.0332 17.0358 14.5174 16.9058 14.8396C16.5862 15.6372 15.9314 16.2675 15.1028 16.5751C14.7681 16.7003 14.2651 16.8493 13.3388 16.8899C12.3373 16.934 12.0368 16.9432 9.5 16.9432C6.96308 16.9432 6.66273 16.934 5.66106 16.8899C4.73492 16.8493 4.23192 16.7003 3.89706 16.5751C3.48451 16.4285 3.11124 16.1948 2.8048 15.891C2.48923 15.596 2.24642 15.2368 2.09407 14.8396C1.96404 14.5174 1.80923 14.0332 1.76704 13.1416C1.72138 12.1774 1.71167 11.8881 1.71167 9.44634C1.71167 7.00444 1.72138 6.71532 1.76704 5.75098C1.80937 4.85934 1.96404 4.37515 2.09407 4.05296C2.24642 3.6557 2.48937 3.29639 2.8048 3.00141C3.11124 2.69764 3.48451 2.46392 3.89721 2.3174C4.23192 2.1921 4.73492 2.04321 5.66121 2.00247C6.66287 1.95851 6.96337 1.94916 9.5 1.94916C12.0365 1.94916 12.337 1.95851 13.3388 2.00261C14.2651 2.04321 14.7679 2.19224 15.1028 2.3174C15.5153 2.46406 15.8886 2.69778 16.1951 3.00141C16.5106 3.29639 16.7534 3.6557 16.9056 4.05296C17.0358 4.37515 17.1906 4.85934 17.2328 5.75098C17.2785 6.71518 17.2882 7.00444 17.2882 9.4462C17.2882 11.8881 17.2786 12.1772 17.2328 13.1416ZM9.49986 4.75023C6.80566 4.75023 4.62157 6.85277 4.62157 9.4462C4.62157 12.0396 6.80566 14.142 9.49986 14.142C12.1942 14.142 14.3783 12.0396 14.3783 9.4462C14.3783 6.85277 12.1942 4.75023 9.49986 4.75023ZM9.49986 12.4944C7.75108 12.4942 6.33324 11.1296 6.33338 9.44606C6.33338 7.76269 7.75108 6.39788 9.5 6.39788C11.2489 6.39802 12.6666 7.76269 12.6666 9.44606C12.6666 11.1296 11.2488 12.4944 9.49986 12.4944ZM14.5711 5.6621C15.2006 5.6621 15.711 5.17079 15.711 4.56478C15.711 3.95863 15.2006 3.46732 14.5711 3.46732C13.9414 3.46732 13.431 3.95863 13.431 4.56478C13.431 5.17079 13.9414 5.6621 14.5711 5.6621Z" fill="black"/>
</svg>

