<svg width="19" height="19" viewBox="0 0 19 19" fill="none" xmlns="http://www.w3.org/2000/svg">
    <path fill-rule="evenodd" clip-rule="evenodd" d="M18.9429 5.70972C18.8966 4.73076 18.736 4.06222 18.5012 3.47732C18.2627 2.86364 17.8887 2.30779 17.4055 1.84834C16.931 1.38047 16.3567 1.01828 15.7228 0.78729C15.1184 0.560092 14.428 0.404744 13.4168 0.360259C12.4037 0.315353 12.08 0.304688 9.5 0.304688C6.92003 0.304688 6.59634 0.315353 5.58322 0.359978C4.57199 0.404744 3.88155 0.560232 3.27722 0.78757C2.64332 1.01842 2.06914 1.38047 1.59454 1.84834C1.11125 2.30765 0.737114 2.8635 0.498512 3.47718C0.263824 4.06222 0.103355 4.73076 0.0574036 5.70958C0.0110168 6.6905 0 7.00372 0 9.50136C0 11.9991 0.0110168 12.3125 0.0574036 13.2933C0.1035 14.2721 0.264114 14.9406 0.498947 15.5257C0.737404 16.1392 1.1114 16.6952 1.59469 17.1545C2.06914 17.6224 2.64346 17.9844 3.27737 18.2153C3.88155 18.4428 4.57214 18.5981 5.58337 18.6429C6.59663 18.6876 6.92017 18.6982 9.50014 18.6982C12.0801 18.6982 12.4038 18.6876 13.4169 18.6429C14.4282 18.5981 15.1186 18.4428 15.7229 18.2153C16.999 17.7376 18.0078 16.761 18.5012 15.5257C18.7362 14.9406 18.8966 14.2721 18.9429 13.2933C18.989 12.3123 19 11.9991 19 9.5015C19 7.00372 18.989 6.6905 18.9429 5.70972ZM17.2328 13.2179C17.1906 14.1146 17.0358 14.6016 16.9058 14.9256C16.5862 15.7278 15.9314 16.3616 15.1028 16.6711C14.7681 16.7969 14.2651 16.9468 13.3388 16.9877C12.3373 17.032 12.0368 17.0413 9.5 17.0413C6.96308 17.0413 6.66273 17.032 5.66106 16.9877C4.73492 16.9468 4.23192 16.7969 3.89706 16.6711C3.48451 16.5236 3.11124 16.2885 2.8048 15.983C2.48923 15.6864 2.24642 15.3251 2.09407 14.9256C1.96404 14.6016 1.80923 14.1146 1.76704 13.2179C1.72138 12.2482 1.71167 11.9573 1.71167 9.50164C1.71167 7.04582 1.72138 6.75506 1.76704 5.78522C1.80937 4.8885 1.96404 4.40154 2.09407 4.07752C2.24642 3.67799 2.48937 3.31664 2.8048 3.01997C3.11124 2.71447 3.48451 2.47941 3.89721 2.33207C4.23192 2.20605 4.73492 2.05631 5.66121 2.01534C6.66287 1.97113 6.96337 1.96173 9.5 1.96173C12.0365 1.96173 12.337 1.97113 13.3388 2.01548C14.2651 2.05631 14.7679 2.20619 15.1028 2.33207C15.5153 2.47956 15.8886 2.71461 16.1951 3.01997C16.5106 3.31664 16.7534 3.67799 16.9056 4.07752C17.0358 4.40154 17.1906 4.8885 17.2328 5.78522C17.2785 6.75492 17.2882 7.04582 17.2882 9.5015C17.2882 11.9573 17.2786 12.2481 17.2328 13.2179ZM9.49986 4.77876C6.80566 4.77876 4.62157 6.89328 4.62157 9.5015C4.62157 12.1097 6.80566 14.2241 9.49986 14.2241C12.1942 14.2241 14.3783 12.1097 14.3783 9.5015C14.3783 6.89328 12.1942 4.77876 9.49986 4.77876ZM9.49986 12.5671C7.75108 12.5669 6.33324 11.1945 6.33338 9.50136C6.33338 7.80839 7.75108 6.4358 9.5 6.4358C11.2489 6.43594 12.6666 7.80839 12.6666 9.50136C12.6666 11.1945 11.2488 12.5671 9.49986 12.5671ZM14.5711 5.69583C15.2006 5.69583 15.711 5.20172 15.711 4.59226C15.711 3.98265 15.2006 3.48854 14.5711 3.48854C13.9414 3.48854 13.431 3.98265 13.431 4.59226C13.431 5.20172 13.9414 5.69583 14.5711 5.69583Z" fill="black"/>
</svg>
