<svg width="257" height="38" viewBox="0 0 257 38" fill="none" xmlns="http://www.w3.org/2000/svg">
<path d="M56.648 25.8956C56.648 24.8556 56.84 23.8396 57.224 22.8476C57.608 21.8396 58.168 20.9276 58.904 20.1116C59.64 19.2956 60.536 18.6476 61.592 18.1676C62.648 17.6716 63.848 17.4236 65.192 17.4236C66.792 17.4236 68.176 17.7676 69.344 18.4556C70.528 19.1436 71.408 20.0396 71.984 21.1436L68.96 23.2556C68.704 22.6476 68.36 22.1756 67.928 21.8396C67.512 21.5036 67.048 21.2716 66.536 21.1436C66.04 20.9996 65.56 20.9276 65.096 20.9276C64.344 20.9276 63.688 21.0796 63.128 21.3836C62.568 21.6716 62.104 22.0636 61.736 22.5596C61.368 23.0556 61.096 23.6076 60.92 24.2156C60.744 24.8236 60.656 25.4316 60.656 26.0396C60.656 26.7116 60.76 27.3596 60.968 27.9836C61.176 28.6076 61.472 29.1596 61.856 29.6396C62.256 30.1196 62.736 30.5036 63.296 30.7916C63.856 31.0636 64.472 31.1996 65.144 31.1996C65.624 31.1996 66.112 31.1196 66.608 30.9596C67.104 30.7996 67.56 30.5516 67.976 30.2156C68.408 29.8636 68.736 29.4076 68.96 28.8476L72.176 30.7436C71.84 31.5756 71.288 32.2876 70.52 32.8796C69.752 33.4716 68.88 33.9276 67.904 34.2476C66.944 34.5516 65.992 34.7036 65.048 34.7036C63.816 34.7036 62.68 34.4556 61.64 33.9596C60.616 33.4476 59.728 32.7756 58.976 31.9436C58.24 31.0956 57.664 30.1516 57.248 29.1116C56.848 28.0556 56.648 26.9836 56.648 25.8956ZM80.8754 34.5596V17.5196H88.5554C89.3554 17.5196 90.0914 17.6876 90.7634 18.0236C91.4514 18.3436 92.0434 18.7836 92.5394 19.3436C93.0354 19.8876 93.4194 20.5036 93.6914 21.1916C93.9794 21.8796 94.1234 22.5756 94.1234 23.2796C94.1234 23.9836 94.0114 24.6556 93.7874 25.2956C93.5634 25.9196 93.2434 26.4876 92.8274 26.9996C92.4114 27.4956 91.9154 27.9036 91.3394 28.2236L95.0834 34.5596H90.7394L87.4754 29.0636H84.8114V34.5596H80.8754ZM84.8114 25.6316H88.4114C88.7314 25.6316 89.0114 25.5356 89.2514 25.3436C89.5074 25.1356 89.7154 24.8556 89.8754 24.5036C90.0354 24.1516 90.1154 23.7436 90.1154 23.2796C90.1154 22.8156 90.0194 22.4156 89.8274 22.0796C89.6514 21.7276 89.4274 21.4556 89.1554 21.2636C88.8834 21.0716 88.5954 20.9756 88.2914 20.9756H84.8114V25.6316ZM115.65 31.1036V34.5596H103.674V17.5196H115.434V20.9756H107.61V24.2876H114.33V27.4796H107.61V31.1036H115.65ZM129.057 17.5196H133.305L139.161 34.5596H135.129L133.809 30.7436H128.505L127.209 34.5596H123.177L129.057 17.5196ZM133.161 28.0316L131.169 21.4796L129.129 28.0316H133.161ZM158.973 20.9756H153.789V34.5596H149.853V20.9756H144.645V17.5196H158.973V20.9756ZM174.751 34.7036C173.471 34.7036 172.311 34.4636 171.271 33.9836C170.247 33.4876 169.359 32.8316 168.607 32.0156C167.871 31.1836 167.303 30.2556 166.903 29.2316C166.503 28.1916 166.303 27.1196 166.303 26.0156C166.303 24.8796 166.511 23.7996 166.927 22.7756C167.359 21.7516 167.951 20.8396 168.703 20.0396C169.471 19.2236 170.375 18.5836 171.415 18.1196C172.455 17.6556 173.591 17.4236 174.823 17.4236C176.087 17.4236 177.231 17.6716 178.255 18.1676C179.295 18.6476 180.183 19.3036 180.919 20.1356C181.671 20.9676 182.247 21.9036 182.647 22.9436C183.047 23.9676 183.247 25.0156 183.247 26.0876C183.247 27.2236 183.039 28.3036 182.623 29.3276C182.207 30.3516 181.615 31.2716 180.847 32.0876C180.079 32.8876 179.175 33.5276 178.135 34.0076C177.111 34.4716 175.983 34.7036 174.751 34.7036ZM170.311 26.0636C170.311 26.7196 170.407 27.3596 170.599 27.9836C170.791 28.5916 171.071 29.1356 171.439 29.6156C171.823 30.0956 172.295 30.4796 172.855 30.7676C173.415 31.0556 174.055 31.1996 174.775 31.1996C175.527 31.1996 176.183 31.0556 176.743 30.7676C177.303 30.4636 177.767 30.0636 178.135 29.5676C178.503 29.0716 178.775 28.5196 178.951 27.9116C179.143 27.2876 179.239 26.6556 179.239 26.0156C179.239 25.3596 179.143 24.7276 178.951 24.1196C178.759 23.5116 178.471 22.9676 178.087 22.4876C177.703 21.9916 177.231 21.6076 176.671 21.3356C176.111 21.0636 175.479 20.9276 174.775 20.9276C174.023 20.9276 173.367 21.0716 172.807 21.3596C172.263 21.6476 171.799 22.0396 171.415 22.5356C171.047 23.0156 170.767 23.5676 170.575 24.1916C170.399 24.7996 170.311 25.4236 170.311 26.0636ZM192.241 34.5596V17.5196H199.921C200.721 17.5196 201.457 17.6876 202.129 18.0236C202.817 18.3436 203.409 18.7836 203.905 19.3436C204.401 19.8876 204.785 20.5036 205.057 21.1916C205.345 21.8796 205.489 22.5756 205.489 23.2796C205.489 23.9836 205.377 24.6556 205.153 25.2956C204.929 25.9196 204.609 26.4876 204.193 26.9996C203.777 27.4956 203.281 27.9036 202.705 28.2236L206.449 34.5596H202.105L198.841 29.0636H196.177V34.5596H192.241ZM196.177 25.6316H199.777C200.097 25.6316 200.377 25.5356 200.617 25.3436C200.873 25.1356 201.081 24.8556 201.241 24.5036C201.401 24.1516 201.481 23.7436 201.481 23.2796C201.481 22.8156 201.385 22.4156 201.193 22.0796C201.017 21.7276 200.793 21.4556 200.521 21.2636C200.249 21.0716 199.961 20.9756 199.657 20.9756H196.177V25.6316ZM215.327 34.5596V17.5196H226.679V19.8956H218.015V24.9836H225.263V27.2156H218.015V34.5596H215.327ZM237.194 17.5196L241.898 25.9916L246.65 17.5196H249.602L243.242 28.4636V34.5596H240.554V28.4156L234.242 17.5196H237.194Z" fill="#3A0232"/>
<path d="M4.06198 35.4111L11.4385 31.9106L7.93802 24.5341L0.561487 28.0346L4.06198 35.4111ZM40.7682 0.368885L32.9335 2.66747L35.2321 10.5022L43.0668 8.20363L40.7682 0.368885ZM6 29.9726C6.94198 30.3083 6.94197 30.3083 6.94197 30.3083C6.94196 30.3083 6.94196 30.3083 6.94196 30.3083C6.94195 30.3084 6.94195 30.3084 6.94194 30.3084C6.94194 30.3084 6.94194 30.3084 6.94195 30.3083C6.94197 30.3083 6.94202 30.3082 6.9421 30.3079C6.94226 30.3075 6.94253 30.3067 6.94291 30.3057C6.94368 30.3035 6.9449 30.3001 6.94658 30.2954C6.94993 30.2861 6.95508 30.2718 6.962 30.2527C6.97583 30.2146 6.99673 30.1573 7.02439 30.0823C7.07973 29.9324 7.1621 29.7121 7.26914 29.4335L5.40217 28.7163C5.29175 29.0037 5.20629 29.2322 5.14816 29.3897C5.11909 29.4684 5.09685 29.5294 5.08173 29.5711C5.07417 29.592 5.06839 29.608 5.06443 29.6191C5.06245 29.6246 5.06092 29.6288 5.05985 29.6318C5.05931 29.6333 5.05889 29.6345 5.05859 29.6353C5.05844 29.6358 5.05831 29.6361 5.05822 29.6364C5.05817 29.6365 5.05813 29.6366 5.0581 29.6367C5.05808 29.6368 5.05807 29.6368 5.05806 29.6368C5.05805 29.6369 5.05804 29.6369 5.05804 29.6369C5.05803 29.6369 5.05802 29.6369 6 29.9726ZM7.97717 27.6631C8.19893 27.1288 8.4517 26.5371 8.73113 25.9102L6.90441 25.0959C6.61712 25.7404 6.35751 26.3481 6.12993 26.8965L7.97717 27.6631ZM9.53167 24.1808C9.80085 23.6213 10.0854 23.052 10.3829 22.4855L8.61208 21.5558C8.30249 22.1455 8.00743 22.7359 7.72943 23.3136L9.53167 24.1808ZM11.296 20.833C11.6175 20.2822 11.9482 19.7492 12.2852 19.2461L10.6236 18.133C10.2601 18.6756 9.90761 19.2443 9.56878 19.8248L11.296 20.833ZM13.374 17.7639C13.7844 17.2612 14.1906 16.8303 14.587 16.4838L13.2711 14.9778C12.7698 15.4158 12.2865 15.9335 11.8248 16.4989L13.374 17.7639ZM15.8931 15.6536C16.116 15.5733 16.3171 15.538 16.5001 15.538V13.538C16.0554 13.538 15.6247 13.6244 15.2149 13.7721L15.8931 15.6536ZM16.5001 15.538C16.7696 15.538 16.9967 15.5569 17.1883 15.5883L17.5118 13.6146C17.1985 13.5633 16.862 13.538 16.5001 13.538V15.538ZM18.1519 16.0278C18.3882 16.2669 18.5558 16.609 18.7538 17.1455L20.6301 16.4532C20.4228 15.8911 20.1358 15.19 19.5745 14.622L18.1519 16.0278ZM19.4637 18.8642C19.7968 19.4595 20.2777 20.0354 21.0396 20.4507L21.9969 18.6947C21.6359 18.4979 21.4015 18.2314 21.2091 17.8877L19.4637 18.8642ZM23.0369 21.0301C23.3379 21.0623 23.6584 21.0786 24.0001 21.0786V19.0786C23.7217 19.0786 23.4727 19.0653 23.2501 19.0415L23.0369 21.0301ZM24.0001 21.0786C24.4298 21.0786 24.8562 21.0196 25.2746 20.9144L24.7872 18.9747C24.5082 19.0448 24.2461 19.0786 24.0001 19.0786V21.0786ZM27.4561 19.9629C28.0697 19.59 28.6748 19.1401 29.2645 18.6398L27.9706 17.1148C27.4422 17.5631 26.9223 17.9469 26.4175 18.2537L27.4561 19.9629ZM30.8537 17.145C31.3475 16.6371 31.8313 16.1008 32.3006 15.5502L30.7784 14.2529C30.333 14.7755 29.8787 15.2788 29.4198 15.7508L30.8537 17.145ZM33.6446 13.8898C34.0852 13.3188 34.5085 12.7447 34.9099 12.1809L33.2807 11.0209C32.8923 11.5663 32.4843 12.1196 32.0612 12.6679L33.6446 13.8898ZM36.1111 10.4336C36.5332 9.79843 36.9176 9.19742 37.2567 8.65371L35.5595 7.59553C35.2295 8.12482 34.8555 8.70945 34.4454 9.32669L36.1111 10.4336ZM38.3504 6.84147C38.5186 6.55292 38.6495 6.32302 38.7388 6.16443C38.7834 6.08513 38.8177 6.02364 38.841 5.98154C38.8527 5.96049 38.8616 5.94429 38.8678 5.93313C38.8708 5.92756 38.8732 5.92324 38.8749 5.92021C38.8757 5.91869 38.8763 5.9175 38.8768 5.91663C38.8771 5.91619 38.8772 5.91584 38.8774 5.91556C38.8775 5.91543 38.8775 5.91531 38.8776 5.91522C38.8776 5.91517 38.8776 5.91513 38.8777 5.91509C38.8777 5.91507 38.8777 5.91505 38.8777 5.91504C38.8777 5.91501 38.8777 5.91499 38.0001 5.43555C37.1226 4.9561 37.1226 4.95608 37.1226 4.95606C37.1226 4.95606 37.1226 4.95604 37.1226 4.95603C37.1226 4.95602 37.1226 4.95601 37.1226 4.956C37.1226 4.95598 37.1226 4.95599 37.1226 4.95602C37.1226 4.95607 37.1225 4.95621 37.1224 4.95642C37.1222 4.95685 37.1217 4.9576 37.1212 4.95868C37.12 4.96082 37.1181 4.96425 37.1155 4.96892C37.1104 4.97828 37.1025 4.99265 37.0918 5.01183C37.0705 5.0502 37.0384 5.10783 36.996 5.18314C36.9112 5.33377 36.7852 5.55506 36.6224 5.8344L38.3504 6.84147Z" fill="#D800B9"/>
</svg>

