<svg width="19" height="19" viewBox="0 0 19 19" fill="none" xmlns="http://www.w3.org/2000/svg">
<path fill-rule="evenodd" clip-rule="evenodd" d="M14.25 12.7287C13.6483 12.7287 13.11 12.9662 12.6983 13.3383L7.05375 10.0529C7.09333 9.87078 7.125 9.6887 7.125 9.4987C7.125 9.3087 7.09333 9.12662 7.05375 8.94453L12.635 5.69078C13.0625 6.08662 13.6246 6.33203 14.25 6.33203C15.5642 6.33203 16.625 5.2712 16.625 3.95703C16.625 2.64286 15.5642 1.58203 14.25 1.58203C12.9358 1.58203 11.875 2.64286 11.875 3.95703C11.875 4.14703 11.9067 4.32911 11.9463 4.5112L6.365 7.76495C5.9375 7.36912 5.37542 7.1237 4.75 7.1237C3.43583 7.1237 2.375 8.18453 2.375 9.4987C2.375 10.8129 3.43583 11.8737 4.75 11.8737C5.37542 11.8737 5.9375 11.6283 6.365 11.2324L12.0017 14.5258C11.9621 14.692 11.9383 14.8662 11.9383 15.0404C11.9383 16.3149 12.9754 17.352 14.25 17.352C15.5246 17.352 16.5617 16.3149 16.5617 15.0404C16.5617 13.7658 15.5246 12.7287 14.25 12.7287Z" fill="#D800B9"/>
</svg>
