<svg width="17" height="20" viewBox="0 0 17 20" fill="none" xmlns="http://www.w3.org/2000/svg">
<path fill-rule="evenodd" clip-rule="evenodd" d="M6.64289 7.87478V7.0947C6.38568 7.05636 6.12633 7.03645 5.86655 7.03516C2.68989 7.03516 0.105469 9.75607 0.105469 13.0999C0.105469 15.1512 1.07936 16.9669 2.565 18.0649C1.57024 16.9451 1.0172 15.469 1.018 13.9359C1.018 10.6397 3.52887 7.95174 6.64289 7.87478" fill="black"/>
<path fill-rule="evenodd" clip-rule="evenodd" d="M6.77822 16.7056C8.19554 16.7056 9.35177 15.5188 9.40441 14.0397L9.4092 0.835967H11.7008C11.6518 0.560283 11.6271 0.280452 11.6268 0H8.49712L8.4919 13.2042C8.43969 14.6828 7.28302 15.8692 5.86614 15.8692C5.44074 15.8693 5.02175 15.7603 4.64551 15.5513C4.88843 15.908 5.20858 16.1988 5.57944 16.3995C5.95029 16.6003 6.36121 16.7052 6.77822 16.7056V16.7056ZM15.9817 5.31767V4.58384C15.1395 4.58467 14.3154 4.3268 13.6105 3.84179C14.2285 4.59088 15.0607 5.10871 15.9821 5.31767" fill="black"/>
<path fill-rule="evenodd" clip-rule="evenodd" d="M13.6104 3.84084C12.9195 3.00875 12.539 1.94103 12.5395 0.835937H11.7009C11.8095 1.44675 12.0347 2.028 12.3629 2.54451C12.6911 3.06102 13.1155 3.50203 13.6104 3.84084V3.84084ZM5.86634 10.3298C5.1688 10.3306 4.50008 10.6227 4.00683 11.1419C3.51362 11.6611 3.23618 12.365 3.23535 13.0992C3.23583 13.6043 3.3674 14.0997 3.61591 14.5318C3.86441 14.9638 4.22034 15.3162 4.64527 15.5508C4.32172 15.0811 4.14751 14.5158 4.14747 13.9357C4.14814 13.2013 4.42554 12.4973 4.91879 11.978C5.41204 11.4587 6.08084 11.1666 6.77845 11.1658C7.04956 11.1658 7.30935 11.2129 7.55476 11.294V7.93043C7.29759 7.8921 7.0382 7.87218 6.77845 7.87089C6.73274 7.87089 6.68793 7.87364 6.64268 7.87455V10.4581C6.39161 10.3739 6.1298 10.3307 5.86634 10.3298" fill="black"/>
<path fill-rule="evenodd" clip-rule="evenodd" d="M15.9823 5.31686V7.87745C14.3592 7.87745 12.8557 7.33099 11.6276 6.40341V13.0989C11.6276 16.4428 9.04369 19.1632 5.86701 19.1632C4.63941 19.1632 3.50103 18.7556 2.56543 18.0639C3.10334 18.6745 3.75524 19.1616 4.48032 19.4946C5.20541 19.8276 5.98801 19.9994 6.77909 19.9992C9.95577 19.9992 12.5402 17.2788 12.5402 13.9354V7.23982C13.8088 8.20007 15.3323 8.71578 16.8948 8.71386V5.41857C16.5815 5.41857 16.2769 5.38282 15.9823 5.31641" fill="black"/>
<path fill-rule="evenodd" clip-rule="evenodd" d="M11.6278 13.0992V6.40372C12.8963 7.36405 14.4199 7.87976 15.9825 7.87776V5.31718C15.0612 5.10801 14.2291 4.59001 13.6113 3.84084C13.1164 3.50203 12.692 3.06102 12.3637 2.54451C12.0356 2.028 11.8103 1.44675 11.7018 0.835938H9.4102L9.40541 14.0396C9.35276 15.5183 8.19653 16.7051 6.77921 16.7051C6.3622 16.7047 5.95129 16.5997 5.58043 16.399C5.20961 16.1983 4.88946 15.9076 4.6465 15.5508C4.2215 15.3163 3.86544 14.9639 3.61686 14.5318C3.36828 14.0998 3.23662 13.6044 3.23615 13.0992C3.23694 12.365 3.51438 11.6611 4.00763 11.1419C4.50083 10.6227 5.16959 10.3306 5.86713 10.3298C6.1378 10.3298 6.39759 10.3765 6.64344 10.4581V7.87455C3.52942 7.95151 1.01855 10.6394 1.01855 13.9357C1.01855 15.5297 1.60689 16.9809 2.56555 18.0646C3.53199 18.7808 4.68525 19.1646 5.86713 19.1636C9.04381 19.1636 11.6278 16.4431 11.6278 13.0992" fill="black"/>
</svg>
