<svg width="17" height="20" viewBox="0 0 17 20" fill="none" xmlns="http://www.w3.org/2000/svg">
<path fill-rule="evenodd" clip-rule="evenodd" d="M6.64289 7.83041V7.05475C6.38568 7.01663 6.12633 6.99683 5.86655 6.99554C2.68989 6.99554 0.105469 9.70104 0.105469 13.026C0.105469 15.0655 1.07936 16.871 2.565 17.9628C1.57024 16.8493 1.0172 15.3816 1.018 13.8572C1.018 10.5796 3.52887 7.90693 6.64289 7.83041Z" fill="black"/>
<path fill-rule="evenodd" clip-rule="evenodd" d="M6.77858 16.6109C8.1959 16.6109 9.35213 15.4308 9.40478 13.9601L9.40957 0.831229H11.7011C11.6522 0.557108 11.6275 0.278863 11.6271 0H8.49749L8.49227 13.1293C8.44005 14.5996 7.28339 15.7792 5.86651 15.7792C5.4411 15.7794 5.02211 15.6709 4.64587 15.4632C4.8888 15.8179 5.20895 16.107 5.5798 16.3066C5.95066 16.5062 6.36157 16.6105 6.77858 16.6109ZM15.982 5.28753V4.55786C15.1399 4.55869 14.3158 4.30227 13.6108 3.82001C14.2289 4.56486 15.0611 5.07976 15.9825 5.28753" fill="black"/>
<path fill-rule="evenodd" clip-rule="evenodd" d="M13.6104 3.81954C12.9196 2.99216 12.5391 1.93049 12.5395 0.831665H11.701C11.8096 1.43901 12.0348 2.01697 12.363 2.53055C12.6912 3.04413 13.1156 3.48265 13.6104 3.81954ZM5.8664 10.2717C5.16886 10.2726 4.50014 10.5629 4.00689 11.0792C3.51368 11.5954 3.23624 12.2954 3.23541 13.0254C3.23589 13.5277 3.36746 14.0202 3.61597 14.4499C3.86447 14.8795 4.2204 15.2298 4.64533 15.4631C4.32178 14.9961 4.14757 14.434 4.14753 13.8572C4.1482 13.127 4.4256 12.4269 4.91885 11.9106C5.4121 11.3942 6.0809 11.1038 6.77852 11.1029C7.04962 11.1029 7.30941 11.1498 7.55482 11.2305V7.88595C7.29765 7.84783 7.03826 7.82803 6.77852 7.82674C6.7328 7.82674 6.68799 7.82948 6.64275 7.83039V10.3992C6.39167 10.3156 6.12986 10.2726 5.8664 10.2717Z" fill="black"/>
<path fill-rule="evenodd" clip-rule="evenodd" d="M15.982 5.2875V7.83357C14.3589 7.83357 12.8554 7.29021 11.6273 6.36789V13.0255C11.6273 16.3504 9.04338 19.0554 5.8667 19.0554C4.63911 19.0554 3.50073 18.65 2.56512 17.9623C3.10303 18.5694 3.75493 19.0537 4.48002 19.3849C5.20511 19.716 5.98771 19.8868 6.77878 19.8866C9.95546 19.8866 12.5399 17.1816 12.5399 13.8572V7.19956C13.8085 8.15437 15.332 8.66716 16.8945 8.66525V5.38864C16.5812 5.38864 16.2766 5.35309 15.982 5.28705" fill="black"/>
<path fill-rule="evenodd" clip-rule="evenodd" d="M11.6273 13.0254V6.36789C12.8959 7.32278 14.4194 7.83557 15.982 7.83358V5.28751C15.0607 5.07953 14.2287 4.56446 13.6108 3.81954C13.116 3.48265 12.6915 3.04413 12.3633 2.53055C12.0351 2.01697 11.8099 1.43901 11.7013 0.831665H9.40977L9.40498 13.9605C9.35233 15.4308 8.19611 16.6109 6.77878 16.6109C6.36177 16.6105 5.95086 16.5061 5.58 16.3065C5.20919 16.107 4.88904 15.8179 4.64607 15.4631C4.22107 15.2299 3.86502 14.8796 3.61643 14.4499C3.36785 14.0203 3.2362 13.5277 3.23572 13.0254C3.23651 12.2954 3.51395 11.5954 4.0072 11.0792C4.50041 10.5629 5.16917 10.2725 5.8667 10.2717C6.13738 10.2717 6.39716 10.3182 6.64301 10.3992V7.83039C3.52899 7.90691 1.01813 10.5796 1.01813 13.8572C1.01813 15.4422 1.60647 16.8851 2.56513 17.9627C3.53157 18.6748 4.68483 19.0565 5.8667 19.0554C9.04339 19.0554 11.6273 16.3504 11.6273 13.0254Z" fill="black"/>
</svg>

