<svg width="19" height="15" viewBox="0 0 19 15" fill="none" xmlns="http://www.w3.org/2000/svg">
<path fill-rule="evenodd" clip-rule="evenodd" d="M17.9954 1.84437C18.289 2.13627 18.5006 2.49953 18.6091 2.898C19 4.37518 19 7.45392 19 7.45392C19 7.45392 19 10.5171 18.6091 11.9943C18.5006 12.3928 18.289 12.756 17.9954 13.0479C17.7019 13.3398 17.3365 13.5502 16.9358 13.6581C15.4502 14.0623 9.50782 14.0623 9.50782 14.0623C9.50782 14.0623 3.56543 14.0623 2.07984 13.6581C1.6791 13.5502 1.31376 13.3398 1.02019 13.0479C0.726626 12.756 0.51507 12.3928 0.406584 11.9943C0 10.5171 0 7.45392 0 7.45392C0 7.45392 0 4.37518 0.406584 2.898C0.51507 2.49953 0.726626 2.13627 1.02019 1.84437C1.31376 1.55246 1.6791 1.34211 2.07984 1.23424C3.56543 0.829956 9.50782 0.829956 9.50782 0.829956C9.50782 0.829956 15.4502 0.829956 16.9358 1.23424C17.3365 1.34211 17.7019 1.55246 17.9954 1.84437ZM12.5417 7.43839L7.60012 10.2683V4.60843L12.5417 7.43839Z" fill="black"/>
</svg>

